<svg width="1440" height="1024" viewBox="0 0 1440 1024" fill="none"
    xmlns="http://www.w3.org/2000/svg">

    <style>
        .fill-color {
            fill: #000000;
        }

        .fill-color-secondary {
            fill: #e30613;
        }
    </style>
    <path class="fill-color" d="M1112.56 863.543C1045.76 803.739 966.466 759.614 880.457 734.386L956.776 941.316H1141.38L1112.56 863.543Z"/>
    <path class="fill-color" d="M624.908 558.862L720.328 300.187L815.609 558.862C919.187 584.61 1008.34 651.403 1067.87 742.774L824.352 82H616.305L372.673 742.635C432.175 651.403 521.358 584.61 624.908 558.862Z"/>
    <path class="fill-color" d="M328.068 863.543L299.389 941.316H483.881L560.2 734.386C474.185 759.62 394.881 803.744 328.068 863.543V863.543Z"/>
    <path class="fill-color-secondary" d="M1164.63 892.83C1164.63 892.83 996.425 592.44 720.328 592.44C444.231 592.44 276 892.83 276 892.83C276 892.83 463.722 661.881 720.328 661.881C976.935 661.881 1164.63 892.83 1164.63 892.83Z"/>
</svg>
